<svg width="117" height="47" viewBox="0 0 117 47" fill="none" xmlns="http://www.w3.org/2000/svg">
<path fill-rule="evenodd" clip-rule="evenodd" d="M11.8689 9.51809C18.293 3.09397 28.7086 3.09397 35.1327 9.51809C41.5568 15.9422 41.5568 26.3578 35.1327 32.7819L23.5008 44.4138L11.8689 32.7819C5.44475 26.3578 5.44475 15.9422 11.8689 9.51809ZM23.5008 25.85C26.0965 25.85 28.2008 23.7457 28.2008 21.15C28.2008 18.5543 26.0965 16.45 23.5008 16.45C20.905 16.45 18.8008 18.5543 18.8008 21.15C18.8008 23.7457 20.905 25.85 23.5008 25.85Z" fill="url(#paint0_linear_324_4092)"/>
<path d="M61.408 28.352C58.9547 28.352 56.832 27.872 55.04 26.912C53.2693 25.952 51.8933 24.5973 50.912 22.848C49.952 21.0987 49.472 19.0507 49.472 16.704C49.472 14.3573 49.952 12.32 50.912 10.592C51.8933 8.84267 53.2693 7.488 55.04 6.528C56.832 5.568 58.9547 5.088 61.408 5.088C62.9653 5.088 64.384 5.30133 65.664 5.728C66.944 6.13333 68.0213 6.72 68.896 7.488L67.136 12.128C66.1547 11.424 65.248 10.9333 64.416 10.656C63.6053 10.3573 62.6773 10.208 61.632 10.208C59.712 10.208 58.2293 10.7733 57.184 11.904C56.16 13.0133 55.648 14.6133 55.648 16.704C55.648 18.816 56.16 20.4373 57.184 21.568C58.2293 22.6773 59.712 23.232 61.632 23.232C62.6773 23.232 63.6053 23.0933 64.416 22.816C65.248 22.5173 66.1547 22.016 67.136 21.312L68.896 25.952C68.0213 26.72 66.944 27.3173 65.664 27.744C64.384 28.1493 62.9653 28.352 61.408 28.352ZM68.8272 28L79.3873 5.44H84.1873L94.8113 28H88.8913L86.1713 21.792L88.4433 23.424H75.1953L77.4353 21.792L74.7473 28H68.8272ZM81.7553 11.52L78.0113 20.448L77.1153 18.944H86.4913L85.6912 20.448L81.9153 11.52H81.7553ZM96.205 28V5.44H106.861C109.464 5.44 111.469 6.05867 112.877 7.296C114.306 8.53333 115.021 10.2507 115.021 12.448C115.021 13.92 114.701 15.1787 114.061 16.224C113.421 17.248 112.493 18.048 111.277 18.624C110.061 19.1787 108.61 19.456 106.925 19.456L107.213 18.656H108.813C109.752 18.656 110.584 18.912 111.309 19.424C112.034 19.936 112.632 20.6507 113.101 21.568L116.525 28H110.061L106.381 20.8C106.146 20.3307 105.794 20.0107 105.325 19.84C104.877 19.6693 104.365 19.584 103.789 19.584H102.125V28H96.205ZM102.125 15.392H105.837C106.989 15.392 107.864 15.168 108.461 14.72C109.058 14.2507 109.357 13.5573 109.357 12.64C109.357 11.744 109.058 11.072 108.461 10.624C107.864 10.176 106.989 9.952 105.837 9.952H102.125V15.392Z" fill="#1A1A1A"/>
<path d="M56.4647 45C55.0998 45 53.937 44.7769 52.9764 44.3306C52.0159 43.8843 51.2765 43.2503 50.7583 42.4288C50.2528 41.597 50 40.6183 50 39.4924C50 38.3665 50.2528 37.3928 50.7583 36.5712C51.2765 35.7497 52.0159 35.1157 52.9764 34.6694C53.937 34.2231 55.0998 34 56.4647 34C57.4127 34 58.2594 34.1116 59.0051 34.3347C59.7508 34.5579 60.4017 34.8824 60.9578 35.3084L60.2753 36.5712C59.6687 36.1554 59.0747 35.8562 58.4933 35.6736C57.9245 35.491 57.261 35.3997 56.5027 35.3997C55.0618 35.3997 53.9623 35.7547 53.2039 36.4647C52.4456 37.1747 52.0664 38.184 52.0664 39.4924C52.0664 40.8008 52.4456 41.8151 53.2039 42.5353C53.9623 43.2453 55.0618 43.6003 56.5027 43.6003C57.261 43.6003 57.9245 43.509 58.4933 43.3264C59.0747 43.1438 59.6687 42.8396 60.2753 42.4136L60.9578 43.6763C60.4017 44.1024 59.7508 44.432 59.0051 44.6653C58.2594 44.8884 57.4127 45 56.4647 45Z" fill="#1A1A1A"/>
<path d="M63.4332 44.8631V34.1369H69.0827C70.5109 34.1369 71.6168 34.4108 72.4004 34.9585C73.184 35.4961 73.5758 36.2517 73.5758 37.2254C73.5758 37.8645 73.3989 38.4122 73.045 38.8686C72.6911 39.325 72.1919 39.675 71.5473 39.9184C70.9027 40.1517 70.1444 40.2683 69.2723 40.2683L69.5757 40.0249H70.0875C70.6057 40.0249 71.067 40.1314 71.4715 40.3444C71.8886 40.5574 72.2298 40.8972 72.4952 41.3638L74.41 44.8631H72.2488L70.3529 41.3485C70.1634 40.9327 69.8664 40.6639 69.4619 40.5422C69.0701 40.4205 68.5835 40.3596 68.0021 40.3596H65.4049V44.8631H63.4332ZM65.4049 39.1577H68.7605C69.7084 39.1577 70.4225 38.9954 70.9027 38.6708C71.3956 38.3462 71.6421 37.8797 71.6421 37.2711C71.6421 36.6524 71.3956 36.1858 70.9027 35.8714C70.4225 35.5569 69.7084 35.3997 68.7605 35.3997H65.4049V39.1577Z" fill="#1A1A1A"/>
<path d="M76.6521 44.8631V34.1369H85.4108V35.3997H78.5669V38.7773H84.9747V40.0553H78.5669V43.5851H85.4108V44.8631H76.6521Z" fill="#1A1A1A"/>
<path d="M87.853 44.8631V34.1369H92.4788C93.9828 34.1369 95.253 34.3449 96.2894 34.7607C97.3384 35.1766 98.1283 35.7852 98.6591 36.5864C99.2026 37.3776 99.4743 38.3462 99.4743 39.4924C99.4743 40.6284 99.2026 41.597 98.6591 42.3983C98.1283 43.1996 97.3384 43.8133 96.2894 44.2393C95.253 44.6551 93.9828 44.8631 92.4788 44.8631H87.853ZM89.8246 43.5394H92.365C94.0839 43.5394 95.3604 43.2047 96.1946 42.5353C97.0414 41.8658 97.4648 40.8515 97.4648 39.4924C97.4648 38.1332 97.0414 37.124 96.1946 36.4647C95.3604 35.7953 94.0839 35.4606 92.365 35.4606H89.8246V43.5394Z" fill="#1A1A1A"/>
<path d="M102.146 44.8631V34.1369H104.117V44.8631H102.146Z" fill="#1A1A1A"/>
<path d="M110.459 44.8631V35.4606H105.891V34.1369H117V35.4606H112.431V44.8631H110.459Z" fill="#1A1A1A"/>
<defs>
<linearGradient id="paint0_linear_324_4092" x1="9.00078" y1="9.9998" x2="41.0363" y2="20.101" gradientUnits="userSpaceOnUse">
<stop stop-color="#671578"/>
<stop offset="0.569397" stop-color="#404267"/>
<stop offset="1" stop-color="#4499A2"/>
</linearGradient>
</defs>
</svg>
